#tb 0: 1/30
#media_type 0: video
#codec_id 0: rawvideo
#dimensions 0: 1920x1080
#sar 0: 0/1
#tb 1: 1/30
#media_type 1: video
#codec_id 1: rawvideo
#dimensions 1: 1920x1080
#sar 1: 0/1
0,          0,          0,        1,  3110400, 0xd0ce90de
1,          0,          0,        1,  3110400, 0x1859a3ba
0,          1,          1,        1,  3110400, 0x5ce1bc1a
1,          1,          1,        1,  3110400, 0x43cf57e5
0,          2,          2,        1,  3110400, 0x14cf9f7f
1,          2,          2,        1,  3110400, 0x4ffc98ea
0,          3,          3,        1,  3110400, 0x9a6bb93c
1,          3,          3,        1,  3110400, 0x96a2bcfb
0,          4,          4,        1,  3110400, 0x69e5377d
1,          4,          4,        1,  3110400, 0xec4561f0
0,          5,          5,        1,  3110400, 0x66b3bd5d
1,          5,          5,        1,  3110400, 0x633f23f5
0,          6,          6,        1,  3110400, 0x83a2ada2
1,          6,          6,        1,  3110400, 0xe10a2fe7
0,          7,          7,        1,  3110400, 0x503bbe42
1,          7,          7,        1,  3110400, 0x8ecd5c39
0,          8,          8,        1,  3110400, 0xaeb27981
1,          8,          8,        1,  3110400, 0xe571a478
0,          9,          9,        1,  3110400, 0xbe14bf1e
1,          9,          9,        1,  3110400, 0x87d4dbe3
0,         10,         10,        1,  3110400, 0xbd329d79
1,         10,         10,        1,  3110400, 0xc78097f4
